# xmcd
#
# Track frame offsets:
#	150
#	83722
#	123880
#	150131
#	164190
#	195879
#	198923
#
# Disc length: 2909 seconds
#
# Revision: 1
# Processed by: cddbd v1.5.2PL0 Copyright (c) Steve Scherf et al.
# Submitted via: audiograbber 1.83.01
#
DISCID=480b5b07
DTITLE=Grateful Dead - 73-10-19 Oklahoma City Fairgrounds Arena, Oklahoma City 
DTITLE=OK
DYEAR=1900
DGENRE=
TTITLE0=Playing In The Band
TTITLE1=China Cat Sunflower
TTITLE2=I Know You Rider
TTITLE3=Me and My Uncle
TTITLE4=Mississippi Half-Step
TTITLE5=Tuning
TTITLE6=Johnny B Goode
EXTD=
EXTT0=
EXTT1=
EXTT2=
EXTT3=
EXTT4=
EXTT5=
EXTT6=
PLAYORDER=
